HIERARCHY
ROOT Hips
{
	OFFSET	0.00	0.00	0.00
	CHANNELS 6 Xposition Yposition Zposition Zrotation Xrotation Yrotation
	JOINT LeftUpLeg
	{
		OFFSET	 0.126116	-0.014019	-0.065224
		CHANNELS 3 Zrotation Xrotation Yrotation
		JOINT LeftLeg
		{
			OFFSET	 0.000000	 0.000000	 0.569914
			CHANNELS 3 Zrotation Xrotation Yrotation
			JOINT LeftFoot
			{
				OFFSET	 0.000000	 0.000000	 0.544423
				CHANNELS 3 Zrotation Xrotation Yrotation
				JOINT LeftToeBase
				{
					OFFSET	 0.000000	 0.000000	 0.207117
					CHANNELS 3 Zrotation Xrotation Yrotation
					End Site
					{
						OFFSET	 0.000000	 0.000000	 0.207117
					}
				}
			}
		}
	}
	JOINT RightUpLeg
	{
		OFFSET	-0.124023	-0.008373	-0.065224
		CHANNELS 3 Zrotation Xrotation Yrotation
		JOINT RightLeg
		{
			OFFSET	 0.000000	 0.000000	 0.570047
			CHANNELS 3 Zrotation Xrotation Yrotation
			JOINT RightFoot
			{
				OFFSET	 0.000000	 0.000000	 0.544354
				CHANNELS 3 Zrotation Xrotation Yrotation
				JOINT RightToeBase
				{
					OFFSET	 0.000000	 0.000000	 0.207540
					CHANNELS 3 Zrotation Xrotation Yrotation
					End Site
					{
						OFFSET	 0.000000	 0.000000	 0.207540
					}
				}
			}
		}
	}
	JOINT Spine
	{
		OFFSET	 0.000184	-0.007763	 0.117403
		CHANNELS 3 Zrotation Xrotation Yrotation
		JOINT Spine1
		{
			OFFSET	 0.000000	 0.000000	 0.137269
			CHANNELS 3 Zrotation Xrotation Yrotation
			JOINT Spine2
			{
				OFFSET	 0.000000	 0.000000	 0.156879
				CHANNELS 3 Zrotation Xrotation Yrotation
				JOINT LeftShoulder
				{
					OFFSET	 0.080501	-0.002496	 0.160144
					CHANNELS 3 Zrotation Xrotation Yrotation
					JOINT LeftArm
					{
						OFFSET	 0.000000	 0.000000	 0.164363
						CHANNELS 3 Zrotation Xrotation Yrotation
						JOINT LeftForeArm
						{
							OFFSET	 0.000000	 0.000000	 0.364576
							CHANNELS 3 Zrotation Xrotation Yrotation
							JOINT LeftHand
							{
								OFFSET	 0.000000	 0.000000	 0.360812
								CHANNELS 3 Zrotation Xrotation Yrotation
								JOINT LeftHandIndex1
								{
									OFFSET	 0.000000	 0.000000	 0.086006
									CHANNELS 3 Zrotation Xrotation Yrotation
									JOINT LeftHandIndex2
									{
										OFFSET	 0.000000	 0.000000	 0.047237
										CHANNELS 3 Zrotation Xrotation Yrotation
										JOINT LeftHandIndex3
										{
											OFFSET	-0.004284	-0.000551	 0.038165
											CHANNELS 3 Zrotation Xrotation Yrotation
											End Site
											{
												OFFSET	-0.004284	-0.000551	 0.038165
											}
										}
									}
								}
							}
						}
					}
				}
				JOINT Neck
				{
					OFFSET	 0.000000	 0.000000	 0.176489
					CHANNELS 3 Zrotation Xrotation Yrotation
					JOINT Head
					{
						OFFSET	 0.000000	-0.001747	 0.077940
						CHANNELS 3 Zrotation Xrotation Yrotation
						End Site
						{
							OFFSET	 0.000000	-0.001747	 0.077940
						}
					}
				}
				JOINT RightShoulder
				{
					OFFSET	-0.080363	 0.000306	 0.159706
					CHANNELS 3 Zrotation Xrotation Yrotation
					JOINT RightArm
					{
						OFFSET	 0.000000	 0.000000	 0.164196
						CHANNELS 3 Zrotation Xrotation Yrotation
						JOINT RightForeArm
						{
							OFFSET	 0.000000	 0.000000	 0.365611
							CHANNELS 3 Zrotation Xrotation Yrotation
							JOINT RightHand
							{
								OFFSET	 0.000000	 0.000000	 0.360648
								CHANNELS 3 Zrotation Xrotation Yrotation
								JOINT RightHandIndex1
								{
									OFFSET	 0.000000	 0.000000	 0.069977
									CHANNELS 3 Zrotation Xrotation Yrotation
									JOINT RightHandIndex2
									{
										OFFSET	 0.000000	 0.000000	 0.052305
										CHANNELS 3 Zrotation Xrotation Yrotation
										JOINT RightHandIndex3
										{
											OFFSET	 0.009002	-0.000782	 0.042196
											CHANNELS 3 Zrotation Xrotation Yrotation
											End Site
											{
												OFFSET	 0.009002	-0.000782	 0.042196
											}
										}
									}
								}
							}
						}
					}
				}
			}
		}
	}
}
MOTION
Frames:    13
Frame Time: 0.03333334
-0.718349	-0.006131	 1.272804	-176.977200	-5.657634	 0.058712	 9.081521	 5.064161	 176.881700	-4.280868	-8.711287	-0.872897	-8.131677	 70.654590	-0.501730	-2.385833	 28.452760	 0.000004	-8.199240	 3.885882	-178.131900	 2.165485	-12.617980	 0.521491	 6.579447	 72.931750	-0.515712	 2.384659	 28.388700	-0.000001	 2.650187	 6.063622	-2.375442	 2.603837	 12.601830	 7.608835	-10.234530	-9.805397	-10.023930	-91.776170	 78.527400	 180.000000	-3.676548	-1.641397	 2.613143	-14.263200	-2.509001	-31.239580	 0.209979	-9.263824	-2.254646	-4.130354	 21.526190	 0.991307	-5.167926	 0.731697	 3.519349	-1.378229	 35.397820	-2.634230	-8.143580	 1.000089	 3.523079	-6.520108	-16.733850	-5.013119	 89.782110	 78.203900	 180.000000	 28.910710	-4.566740	 7.919344	 7.405237	-1.698897	 20.675680	 29.605400	 47.787760	-1.037813	 5.716295	 19.173350	-3.684826	 5.027458	 0.246833	-9.377971	-2.350882	 35.473990	 5.254307
-0.718191	-0.006145	 1.272785	-176.836000	-5.902109	 0.055967	 9.893692	 5.210320	 176.675500	-4.802153	-8.838420	-0.966491	-6.808220	 70.169460	-1.325791	-2.385833	 28.452760	 0.000004	-8.625919	 4.223387	-178.019700	 2.547327	-12.534600	 0.601130	 6.025037	 72.240850	-0.319906	 2.384659	 28.388700	-0.000001	 2.598338	 6.248494	-2.446461	 2.636595	 12.956370	 7.809253	-10.558700	-10.156940	-10.353080	-91.776170	 78.527400	-180.000000	-3.483652	-0.830957	 3.655208	-14.571670	-2.525454	-33.425750	-0.341889	-9.771243	-2.251069	-4.130354	 21.526190	 0.991307	-5.167926	 0.731697	 3.519349	-1.378229	 35.397820	-2.634230	-8.455091	 1.146007	 3.765037	-6.784743	-17.071170	-5.368177	 89.782120	 78.203870	 180.000000	 30.148700	-3.626250	 6.841063	 7.796070	-1.785225	 23.484880	 33.677960	 48.537170	-4.287338	 5.716295	 19.173350	-3.684826	 5.027458	 0.246833	-9.377971	-2.350882	 35.473990	 5.254307
-0.718001	-0.006170	 1.272744	-176.663200	-6.207618	 0.049672	 10.889080	 5.364284	 176.410400	-5.443070	-9.057876	-1.092501	-5.229331	 69.614750	-2.297472	-2.385833	 28.452760	 0.000004	-9.151693	 4.602169	-177.869400	 3.016821	-12.532570	 0.703182	 5.377432	 71.453770	-0.113304	 2.384659	 28.388700	-0.000001	 2.523423	 6.492032	-2.523989	 2.667044	 13.359790	 8.042591	-10.957320	-10.573760	-10.752130	-91.776150	 78.527420	 180.000000	-3.201989	 0.297388	 5.056263	-14.955350	-2.535194	-36.381860	-1.013901	-10.407000	-2.255174	-4.130354	 21.526190	 0.991307	-5.167926	 0.731697	 3.519349	-1.378229	 35.397820	-2.634230	-8.839273	 1.322079	 4.065131	-7.113885	-17.481550	-5.812904	 89.782100	 78.203850	 180.000000	 31.760470	-2.320152	 5.418273	 8.277667	-1.858103	 27.139430	 39.012800	 48.959830	-8.631260	 5.716295	 19.173350	-3.684826	 5.027458	 0.246833	-9.377971	-2.350882	 35.473990	 5.254307
-0.717830	-0.006196	 1.272688	-176.505900	-6.492167	 0.040888	 11.797220	 5.479794	 176.155600	-6.030920	-9.322118	-1.220793	-3.826051	 69.149310	-3.151287	-2.385833	 28.452760	 0.000004	-9.634157	 4.905262	-177.719200	 3.447829	-12.648390	 0.804272	 4.816924	 70.805110	 0.042156	 2.384659	 28.388700	-0.000001	 2.442578	 6.728837	-2.585703	 2.683983	 13.698910	 8.245157	-11.322280	-10.940910	-11.112970	-91.776180	 78.527380	-180.000000	-2.902547	 1.470205	 6.442987	-15.308610	-2.528859	-39.329140	-1.623259	-11.000560	-2.267504	-4.130354	 21.526190	 0.991307	-5.167926	 0.731697	 3.519349	-1.378229	 35.397820	-2.634230	-9.192412	 1.480220	 4.342564	-7.419134	-17.853290	-6.228343	 89.782060	 78.203890	-180.000000	 33.312990	-0.969615	 4.015084	 8.716417	-1.888644	 30.670920	 44.062230	 48.821080	-12.779910	 5.716295	 19.173350	-3.684826	 5.027458	 0.246833	-9.377971	-2.350882	 35.473990	 5.254307
-0.717715	-0.006231	 1.272590	-176.376400	-6.715289	 0.036683	 12.428450	 5.475664	 175.946000	-6.451454	-9.757314	-1.349766	-2.961915	 68.960740	-3.623559	-2.385833	 28.452760	 0.000004	-9.966366	 5.136066	-177.601800	 3.750722	-12.819680	 0.882477	 4.536819	 70.421600	 0.028074	 2.384659	 28.388700	-0.000001	 2.328008	 6.929833	-2.645500	 2.650023	 13.862230	 8.416852	-11.569310	-11.137760	-11.373100	-91.776120	 78.527420	 180.000000	-2.698532	 2.845852	 7.970540	-15.568680	-2.602982	-42.650840	-2.054500	-11.424170	-2.288327	-4.130354	 21.526190	 0.991307	-5.167926	 0.731697	 3.519349	-1.378229	 35.397820	-2.634230	-9.444822	 1.586598	 4.569630	-7.636069	-18.083850	-6.580382	 89.782050	 78.203870	-180.000000	 34.275530	 0.395488	 2.334873	 9.077430	-1.948939	 34.625920	 47.940090	 47.852740	-15.810480	 5.716295	 19.173350	-3.684826	 5.027458	 0.246833	-9.377971	-2.350882	 35.473990	 5.254307
-0.717812	-0.006381	 1.271997	-176.235000	-6.839712	 0.070917	 12.056990	 4.674275	 175.761400	-6.330433	-12.066260	-1.638975	-4.780752	 70.420870	-1.878485	-2.385833	 28.452760	 0.000004	-9.712484	 5.216916	-177.587700	 3.605774	-13.719630	 0.908735	 6.012986	 71.386410	-1.420675	 2.384659	 28.388700	-0.000001	 1.755640	 7.129018	-2.840936	 2.160861	 13.047990	 8.702461	-11.334370	-10.411580	-11.330400	-91.776180	 78.527350	-180.000000	-3.292972	 8.324652	 12.999720	-15.778340	-3.613567	-54.094710	-1.925956	-11.207300	-2.347462	-4.130354	 21.526190	 0.991307	-5.167926	 0.731697	 3.519349	-1.378229	 35.397820	-2.634230	-9.360615	 1.504671	 4.788713	-7.531287	-17.671590	-7.006051	 89.782200	 78.203900	 179.999900	 31.591250	 3.889163	-3.790153	 9.612638	-2.553926	 48.163330	 48.855700	 41.757740	-15.065790	 5.716295	 19.173350	-3.684826	 5.027458	 0.246833	-9.377971	-2.350882	 35.473990	 5.254307
-0.717887	-0.006498	 1.271527	-176.160000	-6.933044	 0.059980	 11.877240	 4.215448	 175.632600	-6.300035	-13.536180	-1.827743	-6.118746	 71.363910	-0.542146	-2.385833	 28.452760	 0.000004	-9.581337	 5.272944	-177.525700	 3.549196	-14.410330	 0.939398	 6.881344	 72.076250	-2.293787	 2.384659	 28.388700	-0.000001	 1.350351	 7.275507	-2.902469	 1.804985	 12.460400	 8.816283	-11.190540	-9.951343	-11.270530	-91.776190	 78.527380	-180.000000	-3.781548	 12.573360	 16.037120	-16.077900	-4.196020	-61.098710	-1.882430	-11.101590	-2.375233	-4.130354	 21.526190	 0.991307	-5.167926	 0.731697	 3.519349	-1.378229	 35.397820	-2.634230	-9.313802	 1.454795	 4.884200	-7.475601	-17.454120	-7.197427	 89.782200	 78.203890	 179.999900	 29.681510	 6.609010	-7.305664	 9.997704	-2.857558	 56.368010	 48.756600	 37.885020	-14.112690	 5.716295	 19.173350	-3.684826	 5.027458	 0.246833	-9.377971	-2.350882	 35.473990	 5.254307
-0.718084	-0.006721	 1.270568	-176.062200	-7.117384	-0.107235	 11.840600	 3.609994	 175.460900	-6.428260	-15.856440	-2.168994	-8.638544	 72.909650	 2.147306	-2.385833	 28.452760	 0.000004	-9.480647	 5.345634	-177.217300	 3.598394	-15.794930	 1.040899	 7.570199	 73.300220	-3.061967	 2.384659	 28.388700	-0.000001	 0.609652	 7.568166	-2.733029	 1.150045	 11.362340	 8.755901	-10.978440	-9.233303	-11.039700	-91.776180	 78.527400	-180.000000	-4.668886	 21.111180	 20.565240	-16.758560	-4.914667	-71.599210	-1.943306	-11.082660	-2.401424	-4.130354	 21.526190	 0.991307	-5.167926	 0.731697	 3.519349	-1.378229	 35.397820	-2.634230	-9.248640	 1.357932	 4.865728	-7.418386	-17.210470	-7.197959	 89.782170	 78.203870	 179.999900	 26.181510	 12.287440	-12.400710	 10.672080	-3.240610	 69.280360	 47.988910	 31.971250	-11.681980	 5.716295	 19.173350	-3.684826	 5.027458	 0.246833	-9.377971	-2.350882	 35.473990	 5.254307
-0.718294	-0.006990	 1.269389	-176.005700	-7.285692	-0.310345	 11.856820	 3.014202	 175.224000	-6.596319	-18.321760	-2.548839	-12.248060	 74.453390	 5.990365	-2.385833	 28.452760	 0.000004	-9.287652	 5.501967	-176.863000	 3.610976	-17.293240	 1.140482	 8.488982	 74.758910	-4.019904	 2.384659	 28.388700	-0.000001	-0.289263	 7.842384	-2.461178	 0.328919	 9.996575	 8.525019	-10.695350	-8.366001	-10.691990	-91.776180	 78.527400	-180.000000	-5.472781	 32.305340	 24.093450	-17.426790	-5.395635	-79.851270	-2.058601	-11.079050	-2.420941	-4.130354	 21.526190	 0.991307	-5.167926	 0.731697	 3.519349	-1.378229	 35.397820	-2.634230	-9.123658	 1.174354	 4.778014	-7.320014	-16.881520	-6.997335	 89.782230	 78.203870	 179.999900	 20.838580	 19.708250	-16.092410	 11.364690	-3.540262	 81.443280	 44.575470	 25.439780	-7.433816	 5.716295	 19.173350	-3.684826	 5.027458	 0.246833	-9.377971	-2.350882	 35.473990	 5.254307
-0.718445	-0.007191	 1.268511	-176.010100	-7.361831	-0.478985	 11.942920	 2.636796	 175.045900	-6.737772	-19.948560	-2.815123	-15.352360	 75.356340	 9.302874	-2.385833	 28.452760	 0.000004	-9.059319	 5.633660	-176.606500	 3.575037	-18.311780	 1.194065	 9.141514	 75.844470	-4.642773	 2.384659	 28.388700	-0.000001	-0.957561	 7.986067	-2.178634	-0.300701	 8.941647	 8.205999	-10.448800	-7.702676	-10.355600	-91.776220	 78.527400	-180.000000	-5.587365	 40.956360	 25.181990	-17.691180	-5.544729	-82.794080	-2.190333	-11.100780	-2.430359	-4.130354	 21.526190	 0.991307	-5.167926	 0.731697	 3.519349	-1.378229	 35.397820	-2.634230	-8.974383	 0.955317	 4.643497	-7.210184	-16.566350	-6.641327	 89.782130	 78.203870	 180.000000	 15.820770	 25.606430	-16.943560	 11.789850	-3.745260	 88.359670	 40.518430	 20.953470	-3.654291	 5.716295	 19.173350	-3.684826	 5.027458	 0.246833	-9.377971	-2.350882	 35.473990	 5.254307
-0.718634	-0.007504	 1.267178	-176.020000	-7.465621	-0.640661	 12.007890	 2.124340	 174.657300	-6.939851	-22.299890	-3.208447	-20.825820	 76.664060	 15.068930	-2.385833	 28.452760	 0.000004	-8.764235	 6.016510	-176.302900	 3.514465	-19.586520	 1.253623	 10.533030	 77.355320	-6.000534	 2.384659	 28.388700	-0.000001	-2.007351	 8.226132	-1.876337	-1.313800	 7.192358	 7.665621	-10.068790	-6.570147	-9.787308	-91.776150	 78.527400	 180.000000	-4.021821	 54.013360	 23.149950	-17.551170	-5.692211	-81.591320	-2.333793	-11.094060	-2.446644	-4.130354	 21.526190	 0.991307	-5.167926	 0.731697	 3.519349	-1.378229	 35.397820	-2.634230	-8.774619	 0.689012	 4.506210	-7.058532	-16.099960	-6.289584	 89.782010	 78.203850	-179.999900	 5.944182	 35.223110	-14.369100	 12.293870	-4.066514	 95.578290	 32.271060	 14.135080	 2.356160	 5.716295	 19.173350	-3.684826	 5.027458	 0.246833	-9.377971	-2.350882	 35.473990	 5.254307
-0.718742	-0.007834	 1.265950	-176.043900	-7.560389	-0.436569	 11.894580	 1.574742	 173.914400	-7.074858	-24.622560	-3.579381	-27.484900	 78.167820	 21.884760	-2.385833	 28.452760	 0.000004	-8.576677	 6.726834	-176.353500	 3.420104	-20.287870	 1.263806	 12.988140	 78.411220	-8.452366	 2.384659	 28.388700	-0.000001	-3.003429	 8.625768	-2.167171	-2.369313	 5.043909	 7.260711	-9.647920	-5.014941	-9.161262	-91.776150	 78.527400	 180.000000	 1.716092	 64.806190	 13.704100	-16.632310	-5.689929	-72.791200	-2.253012	-10.945670	-2.473822	-4.130354	 21.526190	 0.991307	-5.167926	 0.731697	 3.519349	-1.378229	 35.397820	-2.634230	-8.641639	 0.646631	 4.609782	-6.923967	-15.599370	-6.637723	 89.782060	 78.203850	-180.000000	-6.973866	 44.342450	-6.029496	 12.593670	-4.792655	 98.279960	 22.170460	 7.939376	 7.771536	 5.716295	 19.173350	-3.684826	 5.027458	 0.246833	-9.377971	-2.350882	 35.473990	 5.254307
-0.718853	-0.008174	 1.264892	-176.058600	-7.595192	-0.228001	 11.814030	 1.116639	 173.190100	-7.197136	-26.585570	-3.899742	-34.841270	 79.271970	 29.391160	-2.385833	 28.452760	 0.000004	-8.365232	 7.434816	-176.433000	 3.331777	-20.789970	 1.262241	 15.621100	 79.346820	-11.073870	 2.384659	 28.388700	-0.000001	-3.975044	 9.047561	-2.401755	-3.388451	 2.839512	 6.664856	-9.243683	-3.453691	-8.452471	-91.776150	 78.527420	 180.000000	 12.684190	 71.377430	-4.968596	-14.956150	-5.101687	-55.980900	-2.181658	-10.820470	-2.497006	-4.130354	 21.526190	 0.991307	-5.167926	 0.731697	 3.519349	-1.378229	 35.397820	-2.634230	-8.475869	 0.568258	 4.649226	-6.774965	-15.082960	-6.867885	 89.782060	 78.203900	-180.000000	-22.901770	 50.945510	 7.856306	 12.536120	-5.519178	 96.614920	 12.164670	 2.387982	 12.988680	 5.716295	 19.173350	-3.684826	 5.027458	 0.246833	-9.377971	-2.350882	 35.473990	 5.254307
